<?xml version="1.0" encoding="UTF-8" standalone="no"?>
<svg
   xmlns:dc="http://purl.org/dc/elements/1.1/"
   xmlns:cc="http://creativecommons.org/ns#"
   xmlns:rdf="http://www.w3.org/1999/02/22-rdf-syntax-ns#"
   xmlns:svg="http://www.w3.org/2000/svg"
   xmlns="http://www.w3.org/2000/svg"
   xmlns:sodipodi="http://sodipodi.sourceforge.net/DTD/sodipodi-0.dtd"
   xmlns:inkscape="http://www.inkscape.org/namespaces/inkscape"
   id="Calque_1"
   data-name="Calque 1"
   viewBox="0 0 47 53"
   version="1.1"
   sodipodi:docname="marker_hubs_innovator.svg"
   inkscape:version="0.92.4 (5da689c313, 2019-01-14)">
  <metadata
     id="metadata14343">
    <rdf:RDF>
      <cc:Work
         rdf:about="">
        <dc:format>image/svg+xml</dc:format>
        <dc:type
           rdf:resource="http://purl.org/dc/dcmitype/StillImage" />
        <dc:title>Fin icones</dc:title>
      </cc:Work>
    </rdf:RDF>
  </metadata>
  <sodipodi:namedview
     pagecolor="#ffffff"
     bordercolor="#666666"
     borderopacity="1"
     objecttolerance="10"
     gridtolerance="10"
     guidetolerance="10"
     inkscape:pageopacity="0"
     inkscape:pageshadow="2"
     inkscape:window-width="3200"
     inkscape:window-height="1675"
     id="namedview14341"
     showgrid="false"
     inkscape:zoom="17.811321"
     inkscape:cx="23.5"
     inkscape:cy="26.5"
     inkscape:window-x="-13"
     inkscape:window-y="-13"
     inkscape:window-maximized="1"
     inkscape:current-layer="Calque_1" />
  <defs
     id="defs14320">
    <style
       id="style14318">.cls-1{fill:#262626;}.cls-2{fill:#fff;}</style>
  </defs>
  <title
     id="title14322">Fin icones</title>
  <rect
     class="cls-2"
     x="16.02"
     y="24.73"
     width="15.34"
     height="1.84"
     rx="0.48"
     ry="0.48"
     id="rect14326" />
  <rect
     class="cls-2"
     x="16.02"
     y="27.54"
     width="15.34"
     height="1.84"
     rx="0.48"
     ry="0.48"
     id="rect14328" />
  <rect
     class="cls-2"
     x="16.02"
     y="30.34"
     width="15.34"
     height="1.84"
     rx="0.48"
     ry="0.48"
     id="rect14330" />
  <path
     class="cls-2"
     d="M12,33.42H35.36a.58.58,0,0,1,.54.61v.62a.58.58,0,0,1-.54.61H12a.58.58,0,0,1-.54-.61V34A.58.58,0,0,1,12,33.42Z"
     id="path14332" />
  <path
     class="cls-2"
     d="M26.47,20.13a.74.74,0,0,0-.71.53A1.84,1.84,0,0,1,24,22H16v1.84h8A3.69,3.69,0,0,0,27.57,21a.74.74,0,0,0-.73-.91Z"
     id="path14334" />
  <polygon
     class="cls-2"
     points="29.52 14.91 29.52 16.14 27.68 19.21 25.84 19.21 24 16.14 24 14.91 29.52 14.91"
     id="polygon14336" />
  <path
     class="cls-2"
     d="M35.94,14V12.78c0-.35-.25-.64-.76-.64h-23c-.51,0-.76.29-.76.64V14Z"
     id="path14338" />
  <g
     transform="matrix(1.5975085,0,0,1.6073266,-384.62482,-248.32869)"
     id="g10111">
    <polygon
       style="fill:#010202"
       points="258.681,174.574 261.123,174.591 261.384,174.369 261.229,173.944 258.653,173.944 258.443,174.294 "
       id="polygon10101" />
    <path
       style="fill:#010202"
       inkscape:connector-curvature="0"
       d="m 259.669,175.587 c 0.004,0.023 0.025,0.089 0.209,0.097 h 0.036 c 0.15,0 0.173,-0.05 0.18,-0.085 l 0.006,-0.168 -0.425,-0.004 z"
       id="path10103" />
    <path
       style="fill:#010202"
       inkscape:connector-curvature="0"
       d="m 261.191,172.479 h -2.438 c -0.046,0.041 -0.099,0.072 -0.156,0.097 l -0.176,0.356 0.167,0.167 h 2.765 l 0.167,-0.168 -0.176,-0.357 c -0.056,-0.024 -0.107,-0.056 -0.153,-0.095 z"
       id="path10105" />
    <path
       style="fill:#010202"
       inkscape:connector-curvature="0"
       d="m 255.375,154.758 c -7.977,0.021 -14.428,6.506 -14.406,14.483 0.014,5.269 2.85,9.869 7.071,12.381 l 7.421,5.556 7.554,-5.693 c 0.749,-0.464 1.452,-0.993 2.1,-1.582 l 0.003,-0.001 c 2.922,-2.652 4.751,-6.482 4.742,-10.737 -0.025,-7.977 -6.507,-14.428 -14.485,-14.407 z m -2.115,16.426 c 0,0.462 -0.375,0.836 -0.835,0.836 l -0.004,3.712 c 0,0.462 -0.378,0.836 -0.839,0.836 -0.462,0 -0.836,-0.374 -0.836,-0.836 l -0.138,-2.943 c 0,-0.299 -0.245,-0.542 -0.544,-0.542 -0.299,0 -0.542,0.243 -0.542,0.542 l -0.139,2.943 c 0,0.462 -0.375,0.836 -0.836,0.836 -0.462,0 -0.84,-0.374 -0.84,-0.836 l -0.003,-3.712 c -0.462,0 -0.836,-0.374 -0.836,-0.836 v -4.548 c 0,-0.842 1.009,-1.549 2.378,-1.756 -0.452,-0.278 -0.755,-0.773 -0.755,-1.344 0,-0.874 0.708,-1.583 1.583,-1.583 0.875,0 1.583,0.709 1.583,1.583 0,0.571 -0.305,1.067 -0.759,1.346 1.36,0.211 2.362,0.915 2.362,1.754 z m 9.251,-0.269 c -0.074,0.077 -0.47,0.524 -0.393,1.061 0.011,0.078 0.005,0.155 -0.014,0.228 l 0.309,0.626 c 0.08,0.163 0.047,0.358 -0.081,0.486 l -0.316,0.315 0.248,0.681 c 0.052,0.143 0.023,0.303 -0.076,0.419 l -0.555,0.565 c -0.08,0.096 -0.198,0.148 -0.322,0.148 -0.006,0 -0.011,0 -0.018,0 l -0.215,-0.002 -0.009,0.223 c -0.036,0.412 -0.374,0.994 -1.164,0.994 h -0.063 c -0.845,-0.036 -1.15,-0.659 -1.15,-1.068 l 0.007,-0.176 -0.239,-0.004 c -0.118,-0.004 -0.229,-0.058 -0.305,-0.148 l -0.555,-0.651 c -0.117,-0.139 -0.134,-0.337 -0.04,-0.493 l 0.319,-0.53 -0.272,-0.272 c -0.128,-0.129 -0.16,-0.323 -0.08,-0.485 l 0.308,-0.627 c -0.019,-0.072 -0.025,-0.149 -0.014,-0.228 0.077,-0.539 -0.317,-0.981 -0.392,-1.06 -1.349,-1.067 -2.459,-2.123 -2.459,-4.16 0,-2.702 2.243,-4.901 4.999,-4.901 2.757,0 5,2.199 5,4.901 0,2.036 -1.111,3.091 -2.458,4.158 z"
       id="path10107" />
    <path
       style="fill:#010202"
       inkscape:connector-curvature="0"
       d="m 259.97,162.982 c -2.098,0 -3.871,1.729 -3.871,3.773 0,1.43 0.634,2.171 2.057,3.295 0.013,0.011 0.025,0.021 0.037,0.032 0.032,0.03 0.668,0.646 0.755,1.55 h 0.6 v -4.233 h -0.798 c -0.149,0 -0.287,-0.078 -0.363,-0.205 l -0.732,-1.221 c -0.121,-0.2 -0.056,-0.461 0.146,-0.58 0.2,-0.121 0.459,-0.056 0.58,0.145 l 0.609,1.016 h 0.56 v -0.799 c 0,-0.232 0.189,-0.422 0.423,-0.422 0.233,0 0.422,0.189 0.422,0.422 v 0.799 h 0.485 l 0.61,-1.016 c 0.12,-0.2 0.38,-0.266 0.581,-0.145 0.2,0.12 0.266,0.381 0.145,0.58 l -0.733,1.221 c -0.077,0.127 -0.214,0.205 -0.363,0.205 h -0.724 v 4.233 h 0.599 c 0.087,-0.904 0.723,-1.52 0.755,-1.55 0.012,-0.012 0.024,-0.021 0.038,-0.032 1.423,-1.124 2.057,-1.865 2.057,-3.295 -0.004,-2.044 -1.777,-3.773 -3.875,-3.773 z"
       id="path10109" />
  </g>
</svg>
