<?xml version="1.0" encoding="UTF-8" standalone="no"?>
<svg
   xmlns:dc="http://purl.org/dc/elements/1.1/"
   xmlns:cc="http://creativecommons.org/ns#"
   xmlns:rdf="http://www.w3.org/1999/02/22-rdf-syntax-ns#"
   xmlns:svg="http://www.w3.org/2000/svg"
   xmlns="http://www.w3.org/2000/svg"
   xmlns:sodipodi="http://sodipodi.sourceforge.net/DTD/sodipodi-0.dtd"
   xmlns:inkscape="http://www.inkscape.org/namespaces/inkscape"
   id="Calque_1"
   data-name="Calque 1"
   viewBox="0 0 47 53"
   version="1.1"
   sodipodi:docname="marker_fablabs2.svg"
   inkscape:version="0.92.4 (5da689c313, 2019-01-14)">
  <metadata
     id="metadata27">
    <rdf:RDF>
      <cc:Work
         rdf:about="">
        <dc:format>image/svg+xml</dc:format>
        <dc:type
           rdf:resource="http://purl.org/dc/dcmitype/StillImage" />
        <dc:title>Fin icones</dc:title>
      </cc:Work>
    </rdf:RDF>
  </metadata>
  <sodipodi:namedview
     pagecolor="#ffffff"
     bordercolor="#666666"
     borderopacity="1"
     objecttolerance="10"
     gridtolerance="10"
     guidetolerance="10"
     inkscape:pageopacity="0"
     inkscape:pageshadow="2"
     inkscape:window-width="3200"
     inkscape:window-height="1675"
     id="namedview25"
     showgrid="false"
     inkscape:zoom="4.4528302"
     inkscape:cx="23.5"
     inkscape:cy="26.5"
     inkscape:window-x="-13"
     inkscape:window-y="-13"
     inkscape:window-maximized="1"
     inkscape:current-layer="Calque_1" />
  <defs
     id="defs4">
    <style
       id="style2">.cls-1{fill:#262626;}.cls-2{fill:#fff;}</style>
  </defs>
  <title
     id="title6">Fin icones</title>
  <path
     inkscape:connector-curvature="0"
     style="fill:#010202;stroke-width:1.58286464"
     d="M 46.558903,23.771891 C 46.522792,11.2084 36.207557,1.0482836 23.517665,1.0829281 10.827821,1.1186484 0.56715071,11.328107 0.6021484,23.891597 0.62012449,32.190091 5.1327426,39.436518 11.847543,43.39281 l 11.80534,8.748928 12.018541,-8.964711 c 1.189938,-0.732351 2.308257,-1.565481 3.339098,-2.49159 l 0.0048,-0.0047 h -0.0016 C 43.66364,36.505483 46.574827,30.471784 46.558887,23.771868 Z M 36.178875,38.508861 H 11.015536 v -2.039607 h 25.163339 z m -5.286226,-9.39467 v 2.038 H 16.3034 v -2.038 z M 18.275981,28.701674 v -2.039606 h 10.642464 v 2.039606 z m 13.645934,2.864819 v 2.038 H 15.274119 v -2.038 z m 0,2.452245 v 2.037998 H 15.274119 v -2.037998 z m 4.25696,-19.25555 h -8.771678 v 3.715391 h -1.643269 v 2.011214 h -0.846324 v 2.526232 h -2.344861 v -2.526232 h -0.851064 v -2.011214 h -1.516052 v -3.715391 h -9.220268 v -3.468057 h 25.193516 z"
     id="path10227" />
</svg>
