<?xml version="1.0" encoding="UTF-8" standalone="no"?>
<svg
   xmlns:dc="http://purl.org/dc/elements/1.1/"
   xmlns:cc="http://creativecommons.org/ns#"
   xmlns:rdf="http://www.w3.org/1999/02/22-rdf-syntax-ns#"
   xmlns:svg="http://www.w3.org/2000/svg"
   xmlns="http://www.w3.org/2000/svg"
   xmlns:sodipodi="http://sodipodi.sourceforge.net/DTD/sodipodi-0.dtd"
   xmlns:inkscape="http://www.inkscape.org/namespaces/inkscape"
   id="Calque_1"
   data-name="Calque 1"
   viewBox="0 0 47 53"
   version="1.1"
   sodipodi:docname="marker_makerspace_maker.svg"
   inkscape:version="0.92.4 (5da689c313, 2019-01-14)">
  <metadata
     id="metadata14343">
    <rdf:RDF>
      <cc:Work
         rdf:about="">
        <dc:format>image/svg+xml</dc:format>
        <dc:type
           rdf:resource="http://purl.org/dc/dcmitype/StillImage" />
        <dc:title>Fin icones</dc:title>
      </cc:Work>
    </rdf:RDF>
  </metadata>
  <sodipodi:namedview
     pagecolor="#ffffff"
     bordercolor="#666666"
     borderopacity="1"
     objecttolerance="10"
     gridtolerance="10"
     guidetolerance="10"
     inkscape:pageopacity="0"
     inkscape:pageshadow="2"
     inkscape:window-width="3200"
     inkscape:window-height="1675"
     id="namedview14341"
     showgrid="false"
     inkscape:zoom="17.811321"
     inkscape:cx="23.5"
     inkscape:cy="26.5"
     inkscape:window-x="-13"
     inkscape:window-y="-13"
     inkscape:window-maximized="1"
     inkscape:current-layer="Calque_1" />
  <defs
     id="defs14320">
    <style
       id="style14318">.cls-1{fill:#262626;}.cls-2{fill:#fff;}</style>
  </defs>
  <title
     id="title14322">Fin icones</title>
  <rect
     class="cls-2"
     x="16.02"
     y="24.73"
     width="15.34"
     height="1.84"
     rx="0.48"
     ry="0.48"
     id="rect14326" />
  <rect
     class="cls-2"
     x="16.02"
     y="27.54"
     width="15.34"
     height="1.84"
     rx="0.48"
     ry="0.48"
     id="rect14328" />
  <rect
     class="cls-2"
     x="16.02"
     y="30.34"
     width="15.34"
     height="1.84"
     rx="0.48"
     ry="0.48"
     id="rect14330" />
  <path
     class="cls-2"
     d="M12,33.42H35.36a.58.58,0,0,1,.54.61v.62a.58.58,0,0,1-.54.61H12a.58.58,0,0,1-.54-.61V34A.58.58,0,0,1,12,33.42Z"
     id="path14332" />
  <path
     class="cls-2"
     d="M26.47,20.13a.74.74,0,0,0-.71.53A1.84,1.84,0,0,1,24,22H16v1.84h8A3.69,3.69,0,0,0,27.57,21a.74.74,0,0,0-.73-.91Z"
     id="path14334" />
  <polygon
     class="cls-2"
     points="29.52 14.91 29.52 16.14 27.68 19.21 25.84 19.21 24 16.14 24 14.91 29.52 14.91"
     id="polygon14336" />
  <path
     class="cls-2"
     d="M35.94,14V12.78c0-.35-.25-.64-.76-.64h-23c-.51,0-.76.29-.76.64V14Z"
     id="path14338" />
  <g
     transform="matrix(1.6102175,0,0,1.6078512,-459.67752,-248.53143)"
     id="g10117">
    <circle
       style="fill:#010202"
       cx="305.397"
       cy="166.507"
       r="0.33899999"
       id="circle10113" />
    <path
       style="fill:#010202"
       inkscape:connector-curvature="0"
       d="m 300.011,154.758 c -7.977,0.021 -14.428,6.506 -14.406,14.483 0.014,5.269 2.849,9.869 7.071,12.381 l 7.42,5.556 7.554,-5.693 c 0.749,-0.464 1.452,-0.993 2.1,-1.582 l 0.003,-0.001 c 2.921,-2.652 4.751,-6.482 4.742,-10.737 -0.024,-7.977 -6.507,-14.428 -14.484,-14.407 z m -0.526,16.426 c 0,0.462 -0.375,0.836 -0.836,0.836 l -0.004,3.712 c 0,0.462 -0.378,0.836 -0.839,0.836 -0.462,0 -0.836,-0.374 -0.836,-0.836 l -0.138,-2.943 c 0,-0.299 -0.246,-0.542 -0.544,-0.542 -0.298,0 -0.542,0.243 -0.542,0.542 l -0.139,2.943 c 0,0.462 -0.375,0.836 -0.836,0.836 -0.462,0 -0.84,-0.374 -0.84,-0.836 l -0.003,-3.712 c -0.462,0 -0.836,-0.374 -0.836,-0.836 v -4.548 c 0,-0.842 1.009,-1.549 2.378,-1.756 -0.451,-0.278 -0.754,-0.773 -0.754,-1.344 0,-0.874 0.708,-1.583 1.583,-1.583 0.875,0 1.583,0.709 1.583,1.583 0,0.571 -0.305,1.067 -0.759,1.346 1.36,0.211 2.362,0.915 2.362,1.754 z m 8.815,5.642 c -0.031,0.026 -0.09,0.064 -0.184,0.064 -0.151,0 -0.315,-0.096 -0.502,-0.292 -0.296,-0.312 -0.153,-0.746 -0.068,-1.004 0.021,-0.061 0.047,-0.144 0.048,-0.17 0.001,-0.039 0.019,-0.131 0.046,-0.262 0.102,-0.485 0.341,-1.624 0.043,-2.694 -0.268,-0.965 -1.099,-2.122 -1.596,-2.813 -0.224,-0.311 -0.332,-0.465 -0.374,-0.56 -0.146,-0.333 -0.138,-0.677 -0.138,-0.69 l 0.005,-0.188 0.141,0.01 -0.187,-0.979 h -0.304 l -0.134,1.036 0.158,-0.007 v 0.188 c 0,0.015 -0.002,0.358 -0.156,0.687 -0.044,0.094 -0.158,0.244 -0.389,0.548 -0.517,0.678 -1.379,1.812 -1.674,2.771 -0.327,1.062 -0.119,2.206 -0.03,2.694 0.024,0.132 0.038,0.223 0.038,0.263 0,0.027 0.025,0.109 0.043,0.172 0.079,0.26 0.209,0.696 -0.096,1 -0.187,0.188 -0.35,0.279 -0.5,0.279 -0.099,0 -0.159,-0.042 -0.18,-0.06 -0.755,-0.755 -1,-2.993 -0.545,-4.897 0.479,-2.003 2.299,-3.498 2.376,-3.562 l 0.046,-0.037 0.125,-0.005 c 0.064,-0.227 0.152,-0.623 0.082,-0.957 -0.104,-0.496 -0.096,-0.748 0.183,-0.879 v -0.175 l -0.271,-0.147 -0.096,-1.374 0.401,-3.499 c 0,0 0.035,-0.209 0.122,0 0.087,0.209 0.504,3.02 0.504,3.02 l 0.031,0.031 c 0,0 -0.317,0.204 -0.317,0.569 0,0 -0.078,0.514 0.495,0.626 l 0.062,-1.261 0.4,-3.081 c 0,0 0.079,-0.174 0.14,0.14 0.061,0.314 0.382,3.429 0.382,3.429 v 1.366 l -0.217,0.217 v 0.2 c 0,0 0.34,-0.043 0.208,0.723 0,0 -0.097,0.595 0.057,1.015 l 0.167,0.013 0.045,0.038 c 0.076,0.065 1.855,1.61 2.278,3.626 0.404,1.914 0.097,4.145 -0.668,4.868 z"
       id="path10115" />
  </g>
</svg>
