<?xml version="1.0" encoding="UTF-8" standalone="no"?>
<svg
   xmlns:dc="http://purl.org/dc/elements/1.1/"
   xmlns:cc="http://creativecommons.org/ns#"
   xmlns:rdf="http://www.w3.org/1999/02/22-rdf-syntax-ns#"
   xmlns:svg="http://www.w3.org/2000/svg"
   xmlns="http://www.w3.org/2000/svg"
   xmlns:sodipodi="http://sodipodi.sourceforge.net/DTD/sodipodi-0.dtd"
   xmlns:inkscape="http://www.inkscape.org/namespaces/inkscape"
   id="Calque_1"
   data-name="Calque 1"
   viewBox="0 0 47 53"
   version="1.1"
   sodipodi:docname="marker_coworkings_localdevelopment.svg"
   inkscape:version="0.92.4 (5da689c313, 2019-01-14)">
  <metadata
     id="metadata14343">
    <rdf:RDF>
      <cc:Work
         rdf:about="">
        <dc:format>image/svg+xml</dc:format>
        <dc:type
           rdf:resource="http://purl.org/dc/dcmitype/StillImage" />
        <dc:title>Fin icones</dc:title>
      </cc:Work>
    </rdf:RDF>
  </metadata>
  <sodipodi:namedview
     pagecolor="#ffffff"
     bordercolor="#666666"
     borderopacity="1"
     objecttolerance="10"
     gridtolerance="10"
     guidetolerance="10"
     inkscape:pageopacity="0"
     inkscape:pageshadow="2"
     inkscape:window-width="3200"
     inkscape:window-height="1675"
     id="namedview14341"
     showgrid="false"
     inkscape:zoom="4.4528302"
     inkscape:cx="23.5"
     inkscape:cy="26.5"
     inkscape:window-x="-13"
     inkscape:window-y="-13"
     inkscape:window-maximized="1"
     inkscape:current-layer="Calque_1" />
  <defs
     id="defs14320">
    <style
       id="style14318">.cls-1{fill:#262626;}.cls-2{fill:#fff;}</style>
  </defs>
  <title
     id="title14322">Fin icones</title>
  <rect
     class="cls-2"
     x="16.02"
     y="24.73"
     width="15.34"
     height="1.84"
     rx="0.48"
     ry="0.48"
     id="rect14326" />
  <rect
     class="cls-2"
     x="16.02"
     y="27.54"
     width="15.34"
     height="1.84"
     rx="0.48"
     ry="0.48"
     id="rect14328" />
  <rect
     class="cls-2"
     x="16.02"
     y="30.34"
     width="15.34"
     height="1.84"
     rx="0.48"
     ry="0.48"
     id="rect14330" />
  <path
     class="cls-2"
     d="M12,33.42H35.36a.58.58,0,0,1,.54.61v.62a.58.58,0,0,1-.54.61H12a.58.58,0,0,1-.54-.61V34A.58.58,0,0,1,12,33.42Z"
     id="path14332" />
  <path
     class="cls-2"
     d="M26.47,20.13a.74.74,0,0,0-.71.53A1.84,1.84,0,0,1,24,22H16v1.84h8A3.69,3.69,0,0,0,27.57,21a.74.74,0,0,0-.73-.91Z"
     id="path14334" />
  <polygon
     class="cls-2"
     points="29.52 14.91 29.52 16.14 27.68 19.21 25.84 19.21 24 16.14 24 14.91 29.52 14.91"
     id="polygon14336" />
  <path
     class="cls-2"
     d="M35.94,14V12.78c0-.35-.25-.64-.76-.64h-23c-.51,0-.76.29-.76.64V14Z"
     id="path14338" />
  <path
     inkscape:connector-curvature="0"
     style="fill:#010202;stroke-width:1.59659052"
     d="M 46.185027,23.791945 C 46.147183,10.898061 35.92451,0.46946972 23.346033,0.50503459 10.765979,0.5373663 0.59534182,11.020921 0.63003237,23.914805 0.65210817,32.434209 5.1224581,39.870501 11.778313,43.93298 l 11.703328,8.98013 11.911473,-9.203219 c 1.179478,-0.748479 2.289576,-1.603653 3.309793,-2.557438 l 0.0047,-0.0016 v 0 c 4.605958,-4.288801 7.491581,-10.480322 7.477389,-17.358892 z m -20.211974,11.725092 -5.354958,2.099944 c -0.07096,0.04365 -0.151377,0.0679 -0.231796,0.0679 -0.04731,0 -0.09461,-0.0081 -0.140339,-0.02587 l -3.292449,-1.283568 c -0.217604,-0.0873 -0.327983,-0.337867 -0.247564,-0.560955 0.01104,-0.02748 0.0205,-0.05011 0.03469,-0.07436 l 0.08199,-4.151391 c 0.01419,-0.737163 -0.473053,-1.553538 -1.061215,-1.78471 -0.463592,-0.176208 -0.815228,0.139026 -0.827843,0.740396 l -0.08673,4.385796 c -0.0016,0.143876 -0.07254,0.273203 -0.187644,0.354032 -0.113533,0.0776 -0.260179,0.09699 -0.38948,0.04526 l -1.743989,-0.682199 c -0.163992,-0.06305 -0.274371,-0.227938 -0.274371,-0.407379 v -9.166038 c 0,-0.174592 0.100918,-0.333017 0.258603,-0.400914 l 7.658726,-3.35603 c 0.09619,-0.0388 0.201836,-0.04365 0.301177,-0.01132 l 5.474799,1.884939 v 3.813524 c 0,0 0.07884,0.61107 -0.663851,0.61107 -0.74427,0 -2.882469,0.476892 -2.882469,3.035947 0,0 -0.11984,2.410328 2.839895,2.905003 0,0 0.692234,-0.03233 0.715886,0.677349 z m 4.538155,-19.261613 c -0.03154,0.134177 -0.124571,0.244105 -0.247565,0.299069 l -8.385651,3.600135 c -0.05361,0.02263 -0.108802,0.03395 -0.163992,0.03395 -0.12457,0 -0.24441,-0.05496 -0.326406,-0.156809 l -4.262207,-5.245819 -5.48426,2.305251 c -0.189221,0.08083 -0.406825,0.0081 -0.518781,-0.168125 -0.110379,-0.176208 -0.082,-0.410613 0.06623,-0.554489 l 4.628035,-4.447226 c 0.05204,-0.05335 0.118263,-0.08891 0.187644,-0.106694 l 7.959903,-3.4158448 c 0.171876,-0.074363 0.372135,-0.024249 0.491975,0.1228604 l 5.971505,7.3522294 c 0.08357,0.105078 0.11511,0.247338 0.08357,0.381514 z M 35.36,23.370016 V 35.26 h -1.977361 c 0.09461,-0.252187 0.152954,-0.523774 0.152954,-0.813142 0,-1.270636 -1.007603,-2.303634 -2.248579,-2.303634 -1.239398,0 -2.247001,1.032998 -2.247001,2.303634 0,0.289368 0.05677,0.560955 0.151377,0.813142 h -2.530833 l -0.01262,-1.39188 c 0,-0.737163 -0.309061,-1.189807 -1.329278,-1.189807 -1.163711,0 -2.106663,-0.966718 -2.106663,-2.161374 0,-1.19304 0.942952,-2.159758 2.106663,-2.159758 0.512474,0 1.341893,0.09538 1.341893,-0.986117 v -4.001048 z"
     id="path10333" />
</svg>
