<?xml version="1.0" encoding="UTF-8" standalone="no"?>
<svg
   xmlns:dc="http://purl.org/dc/elements/1.1/"
   xmlns:cc="http://creativecommons.org/ns#"
   xmlns:rdf="http://www.w3.org/1999/02/22-rdf-syntax-ns#"
   xmlns:svg="http://www.w3.org/2000/svg"
   xmlns="http://www.w3.org/2000/svg"
   xmlns:sodipodi="http://sodipodi.sourceforge.net/DTD/sodipodi-0.dtd"
   xmlns:inkscape="http://www.inkscape.org/namespaces/inkscape"
   id="Calque_1"
   data-name="Calque 1"
   viewBox="0 0 47 53"
   version="1.1"
   sodipodi:docname="marker_lab_personnalfab.svg"
   inkscape:version="0.92.4 (5da689c313, 2019-01-14)">
  <metadata
     id="metadata14343">
    <rdf:RDF>
      <cc:Work
         rdf:about="">
        <dc:format>image/svg+xml</dc:format>
        <dc:type
           rdf:resource="http://purl.org/dc/dcmitype/StillImage" />
        <dc:title>Fin icones</dc:title>
      </cc:Work>
    </rdf:RDF>
  </metadata>
  <sodipodi:namedview
     pagecolor="#ffffff"
     bordercolor="#666666"
     borderopacity="1"
     objecttolerance="10"
     gridtolerance="10"
     guidetolerance="10"
     inkscape:pageopacity="0"
     inkscape:pageshadow="2"
     inkscape:window-width="3200"
     inkscape:window-height="1675"
     id="namedview14341"
     showgrid="false"
     inkscape:zoom="17.811321"
     inkscape:cx="23.5"
     inkscape:cy="26.5"
     inkscape:window-x="-13"
     inkscape:window-y="-13"
     inkscape:window-maximized="1"
     inkscape:current-layer="Calque_1" />
  <defs
     id="defs14320">
    <style
       id="style14318">.cls-1{fill:#262626;}.cls-2{fill:#fff;}</style>
  </defs>
  <title
     id="title14322">Fin icones</title>
  <rect
     class="cls-2"
     x="16.02"
     y="24.73"
     width="15.34"
     height="1.84"
     rx="0.48"
     ry="0.48"
     id="rect14326" />
  <rect
     class="cls-2"
     x="16.02"
     y="27.54"
     width="15.34"
     height="1.84"
     rx="0.48"
     ry="0.48"
     id="rect14328" />
  <rect
     class="cls-2"
     x="16.02"
     y="30.34"
     width="15.34"
     height="1.84"
     rx="0.48"
     ry="0.48"
     id="rect14330" />
  <path
     class="cls-2"
     d="M12,33.42H35.36a.58.58,0,0,1,.54.61v.62a.58.58,0,0,1-.54.61H12a.58.58,0,0,1-.54-.61V34A.58.58,0,0,1,12,33.42Z"
     id="path14332" />
  <path
     class="cls-2"
     d="M26.47,20.13a.74.74,0,0,0-.71.53A1.84,1.84,0,0,1,24,22H16v1.84h8A3.69,3.69,0,0,0,27.57,21a.74.74,0,0,0-.73-.91Z"
     id="path14334" />
  <polygon
     class="cls-2"
     points="29.52 14.91 29.52 16.14 27.68 19.21 25.84 19.21 24 16.14 24 14.91 29.52 14.91"
     id="polygon14336" />
  <path
     class="cls-2"
     d="M35.94,14V12.78c0-.35-.25-.64-.76-.64h-23c-.51,0-.76.29-.76.64V14Z"
     id="path14338" />
  <path
     inkscape:connector-curvature="0"
     style="fill:#010202;stroke-width:1.61185145"
     d="M 46.888505,23.609347 C 46.851381,10.769554 36.387143,0.38762297 23.511434,0.42303421 10.634112,0.45683584 0.22152516,10.891884 0.25703545,23.733286 0.27963291,32.214277 4.8556184,39.618445 11.670366,43.661765 l 11.97988,8.942947 12.192944,-9.165072 c 1.20735,-0.745246 2.342065,-1.596725 3.388005,-2.544781 l 0.0048,-0.0032 h -0.0016 c 4.714798,-4.268663 7.668609,-10.433438 7.654082,-17.282293 z m -29.636568,3.251395 c 0,0.743636 -0.603675,1.345627 -1.349389,1.345627 l -0.0048,5.974842 c 0,0.743636 -0.610131,1.345627 -1.355847,1.345627 -0.745716,0 -1.349391,-0.601991 -1.349391,-1.345627 l -0.221132,-4.737058 c 0,-0.481271 -0.39707,-0.872404 -0.879687,-0.872404 -0.482617,0 -0.873231,0.391133 -0.873231,0.872404 l -0.225974,4.737058 c 0,0.743636 -0.603675,1.345627 -1.3493914,1.345627 -0.7441021,0 -1.3542335,-0.601991 -1.3542335,-1.345627 l -0.00646,-5.974842 c -0.744102,0 -1.3493911,-0.601991 -1.3493911,-1.345627 v -7.320468 c 0,-1.355285 1.6286311,-2.491664 3.838339,-2.826461 -0.729575,-0.447469 -1.2186479,-1.245832 -1.2186479,-2.163305 0,-1.406792 1.1427859,-2.547999 2.5551269,-2.547999 1.412341,0 2.555127,1.141207 2.555127,2.547999 0,0.919083 -0.493916,1.717445 -1.225105,2.166524 2.196795,0.339626 3.812512,1.472786 3.812512,2.823242 v 7.320468 z m 5.50571,0.962542 v -2.137551 h -3.25242 v -2.42406 h 3.25242 v -2.135942 l 3.725352,3.347972 z M 38.580711,11.204146 v 12.537188 h -2.141917 c 0.101689,-0.267194 0.164639,-0.553703 0.164639,-0.856308 0,-1.340798 -1.092749,-2.430499 -2.437297,-2.430499 -1.344549,0 -2.43407,1.089701 -2.43407,2.430499 0,0.302605 0.06134,0.589114 0.163025,0.856308 h -2.743977 l -0.01291,-1.469566 c 0,-0.775828 -0.33412,-1.25388 -1.441395,-1.25388 -1.260616,0 -2.283958,-1.018878 -2.283958,-2.277586 0,-1.25549 1.023342,-2.277587 2.283958,-2.277587 0.555252,0 1.454308,0.0998 1.454308,-1.039803 V 11.204146 Z M 29.1495,37.665998 v -5.295589 c 0.269555,0.101405 0.556866,0.165789 0.860317,0.165789 1.346163,0 2.437298,-1.09131 2.437298,-2.430499 0,-1.340798 -1.091135,-2.428889 -2.437298,-2.428889 -0.303451,0 -0.590762,0.06116 -0.860317,0.16257 v -2.736323 h 2.300098 c 2.298485,0 1.770672,-1.65467 1.770672,-1.65467 -0.09039,-0.157741 -0.140427,-0.341236 -0.140427,-0.534388 0,-0.598772 0.485846,-1.084872 1.087907,-1.084872 0.600446,0 1.087906,0.4861 1.087906,1.084872 0,0.212467 -0.06134,0.408839 -0.166253,0.576237 0,0 -0.458405,1.612821 1.799726,1.612821 h 1.693196 V 37.667608 H 29.1495 Z"
     id="path10075" />
</svg>
