<?xml version="1.0" encoding="UTF-8" standalone="no"?>
<svg
   xmlns:dc="http://purl.org/dc/elements/1.1/"
   xmlns:cc="http://creativecommons.org/ns#"
   xmlns:rdf="http://www.w3.org/1999/02/22-rdf-syntax-ns#"
   xmlns:svg="http://www.w3.org/2000/svg"
   xmlns="http://www.w3.org/2000/svg"
   xmlns:sodipodi="http://sodipodi.sourceforge.net/DTD/sodipodi-0.dtd"
   xmlns:inkscape="http://www.inkscape.org/namespaces/inkscape"
   id="Calque_1"
   data-name="Calque 1"
   viewBox="0 0 47 53"
   version="1.1"
   sodipodi:docname="marker_creativewallonia_energy.svg"
   inkscape:version="0.92.4 (5da689c313, 2019-01-14)">
  <metadata
     id="metadata14343">
    <rdf:RDF>
      <cc:Work
         rdf:about="">
        <dc:format>image/svg+xml</dc:format>
        <dc:type
           rdf:resource="http://purl.org/dc/dcmitype/StillImage" />
        <dc:title>Fin icones</dc:title>
      </cc:Work>
    </rdf:RDF>
  </metadata>
  <sodipodi:namedview
     pagecolor="#ffffff"
     bordercolor="#666666"
     borderopacity="1"
     objecttolerance="10"
     gridtolerance="10"
     guidetolerance="10"
     inkscape:pageopacity="0"
     inkscape:pageshadow="2"
     inkscape:window-width="3200"
     inkscape:window-height="1675"
     id="namedview14341"
     showgrid="false"
     inkscape:zoom="17.811321"
     inkscape:cx="23.5"
     inkscape:cy="26.5"
     inkscape:window-x="-13"
     inkscape:window-y="-13"
     inkscape:window-maximized="1"
     inkscape:current-layer="Calque_1" />
  <defs
     id="defs14320">
    <style
       id="style14318">.cls-1{fill:#262626;}.cls-2{fill:#fff;}</style>
  </defs>
  <title
     id="title14322">Fin icones</title>
  <rect
     class="cls-2"
     x="16.02"
     y="24.73"
     width="15.34"
     height="1.84"
     rx="0.48"
     ry="0.48"
     id="rect14326" />
  <rect
     class="cls-2"
     x="16.02"
     y="27.54"
     width="15.34"
     height="1.84"
     rx="0.48"
     ry="0.48"
     id="rect14328" />
  <rect
     class="cls-2"
     x="16.02"
     y="30.34"
     width="15.34"
     height="1.84"
     rx="0.48"
     ry="0.48"
     id="rect14330" />
  <path
     class="cls-2"
     d="M12,33.42H35.36a.58.58,0,0,1,.54.61v.62a.58.58,0,0,1-.54.61H12a.58.58,0,0,1-.54-.61V34A.58.58,0,0,1,12,33.42Z"
     id="path14332" />
  <path
     class="cls-2"
     d="M26.47,20.13a.74.74,0,0,0-.71.53A1.84,1.84,0,0,1,24,22H16v1.84h8A3.69,3.69,0,0,0,27.57,21a.74.74,0,0,0-.73-.91Z"
     id="path14334" />
  <polygon
     class="cls-2"
     points="29.52 14.91 29.52 16.14 27.68 19.21 25.84 19.21 24 16.14 24 14.91 29.52 14.91"
     id="polygon14336" />
  <path
     class="cls-2"
     d="M35.94,14V12.78c0-.35-.25-.64-.76-.64h-23c-.51,0-.76.29-.76.64V14Z"
     id="path14338" />
  <path
     inkscape:connector-curvature="0"
     style="fill:#010202;stroke-width:1.61595118"
     d="M 46.72783,23.49189 C 46.689185,10.553925 36.251755,0.09392526 23.40544,0.12798107 10.560735,0.16203688 0.17322234,10.678796 0.20864713,23.616761 0.23119017,32.159907 4.7961567,39.619751 11.594495,43.693475 l 11.949424,9.010195 12.163583,-9.232368 c 1.204442,-0.75085 2.336425,-1.608732 3.379846,-2.563917 l 0.0048,-0.0049 v 0 c 4.705055,-4.299141 7.650143,-10.510272 7.635651,-17.41063 z m -18.462753,0.85626 -8.645258,14.434801 3.916049,-11.780067 -6.896562,-2.254172 12.14265,-14.316415 -5.914328,12.117382 z"
     id="path10317" />
</svg>
